<svg width="45" height="45" viewBox="0 0 45 45" fill="none" xmlns="http://www.w3.org/2000/svg">
<path opacity="0.4" d="M31.25 3.75H13.75C7.36667 3.75 3.75 7.36667 3.75 13.75V31.25C3.75 37.6167 7.35 41.25 13.75 41.25H31.25C37.6333 41.25 41.25 37.6167 41.25 31.25V13.75C41.25 7.36667 37.6333 3.75 31.25 3.75Z" fill="#FF7A00"/>
<path d="M28.7259 23.8281H23.9054V28.6068C23.9054 29.3763 23.2762 30 22.5 30C21.7238 30 21.0946 29.3763 21.0946 28.6068V23.8281H16.2741C15.5502 23.7538 15 23.149 15 22.4275C15 21.7059 15.5502 21.1011 16.2741 21.0268H21.0795V16.2631C21.1545 15.5454 21.7646 15 22.4924 15C23.2203 15 23.8304 15.5454 23.9054 16.2631V21.0268H28.7259C29.4498 21.1011 30 21.7059 30 22.4275C30 23.149 29.4498 23.7538 28.7259 23.8281Z" fill="#FF7A00"/>
</svg>
