<svg width="512" height="512" viewBox="0 0 512 512" fill="none" xmlns="http://www.w3.org/2000/svg">
<path d="M399.147 153.813C397.163 151.814 394.804 150.227 392.204 149.144C389.605 148.061 386.816 147.503 384 147.503C381.184 147.503 378.395 148.061 375.796 149.144C373.196 150.227 370.837 151.814 368.853 153.813L209.92 312.96L143.147 245.973C141.088 243.984 138.657 242.42 135.993 241.37C133.33 240.321 130.485 239.806 127.623 239.856C124.76 239.905 121.936 240.518 119.31 241.659C116.684 242.8 114.309 244.448 112.32 246.507C110.331 248.566 108.767 250.997 107.717 253.66C106.667 256.324 106.153 259.168 106.202 262.03C106.252 264.893 106.865 267.718 108.006 270.343C109.147 272.969 110.794 275.344 112.853 277.333L194.773 359.253C196.757 361.253 199.116 362.84 201.716 363.923C204.315 365.006 207.104 365.564 209.92 365.564C212.736 365.564 215.525 365.006 218.124 363.923C220.724 362.84 223.083 361.253 225.067 359.253L399.147 185.173C401.312 183.176 403.04 180.751 404.222 178.052C405.404 175.354 406.015 172.439 406.015 169.493C406.015 166.547 405.404 163.633 404.222 160.934C403.04 158.236 401.312 155.811 399.147 153.813Z" fill="#FF7A00"/>
</svg>
