<svg width="35" height="35" viewBox="0 0 35 35" fill="none" xmlns="http://www.w3.org/2000/svg">
<path opacity="0.4" d="M29.8642 20.0018C28.4841 19.2029 28.0065 17.4799 28.7862 16.1129C29.0422 15.6716 29.4143 15.3047 29.8642 15.05C30.5481 14.6674 31.0476 14.0355 31.2524 13.2937C31.4571 12.5519 31.3503 11.7613 30.9556 11.0963L29.984 9.39814C29.5913 8.73204 28.9425 8.24557 28.1809 8.04613C27.4193 7.8467 26.6075 7.9507 25.9247 8.33518C25.2399 8.72027 24.4261 8.82462 23.6624 8.62527C22.8986 8.42593 22.2474 7.93922 21.8521 7.27223C21.5933 6.82965 21.4558 6.32968 21.4528 5.82038C21.4564 5.05147 21.1452 4.31286 20.5882 3.76794C20.0313 3.22302 19.2743 2.91669 18.4849 2.91669H16.5284C14.8871 2.91669 13.5545 4.20882 13.5471 5.80742C13.5527 6.84421 12.9878 7.80451 12.0666 8.3241C11.1454 8.84368 10.0091 8.84297 9.08856 8.32222C8.39951 7.9221 7.57351 7.81069 6.79875 8.01338C6.024 8.21607 5.36648 8.7156 4.97602 9.39814L4.04437 11.0315C3.23008 12.4174 3.71764 14.1837 5.13573 14.9852C6.55695 15.7914 7.03934 17.5663 6.21377 18.9518C5.96127 19.3923 5.58803 19.7559 5.13573 20.0018C4.45182 20.3843 3.95236 21.0163 3.7476 21.758C3.54284 22.4998 3.64962 23.2905 4.04437 23.9555L4.97602 25.6147C5.80378 26.999 7.62613 27.4688 9.04863 26.6647C10.4726 25.8792 12.2804 26.3526 13.1079 27.7277C13.3713 28.1684 13.5092 28.6696 13.5072 29.1795C13.5072 29.9542 13.8249 30.6967 14.3898 31.242C14.9547 31.7873 15.7198 32.0902 16.5151 32.0834H18.4716C20.1181 32.0834 21.4528 30.7832 21.4528 29.1795C21.4421 28.4062 21.7501 27.6609 22.3079 27.1103C22.8656 26.5598 23.6267 26.2499 24.4208 26.2499C24.9445 26.2468 25.4594 26.3811 25.9114 26.6388C27.3344 27.4319 29.1479 26.957 29.9707 25.5759L30.9556 23.9166C31.7507 22.5404 31.2648 20.7973 29.8642 20.0018Z" fill="#FF9736"/>
<path d="M17.5 21.1459C19.5135 21.1459 21.1458 19.5136 21.1458 17.5C21.1458 15.4865 19.5135 13.8542 17.5 13.8542C15.4864 13.8542 13.8541 15.4865 13.8541 17.5C13.8541 19.5136 15.4864 21.1459 17.5 21.1459Z" fill="#FF9736"/>
</svg>
